G04 #@! TF.GenerationSoftware,KiCad,Pcbnew,7.0.9-7.0.9~ubuntu22.04.1*
G04 #@! TF.CreationDate,2023-12-17T14:41:55+07:00*
G04 #@! TF.ProjectId,final-production,66696e61-6c2d-4707-926f-64756374696f,rev?*
G04 #@! TF.SameCoordinates,Original*
G04 #@! TF.FileFunction,Soldermask,Top*
G04 #@! TF.FilePolarity,Negative*
%FSLAX46Y46*%
G04 Gerber Fmt 4.6, Leading zero omitted, Abs format (unit mm)*
G04 Created by KiCad (PCBNEW 7.0.9-7.0.9~ubuntu22.04.1) date 2023-12-17 14:41:55*
%MOMM*%
%LPD*%
G01*
G04 APERTURE LIST*
G04 Aperture macros list*
%AMRoundRect*
0 Rectangle with rounded corners*
0 $1 Rounding radius*
0 $2 $3 $4 $5 $6 $7 $8 $9 X,Y pos of 4 corners*
0 Add a 4 corners polygon primitive as box body*
4,1,4,$2,$3,$4,$5,$6,$7,$8,$9,$2,$3,0*
0 Add four circle primitives for the rounded corners*
1,1,$1+$1,$2,$3*
1,1,$1+$1,$4,$5*
1,1,$1+$1,$6,$7*
1,1,$1+$1,$8,$9*
0 Add four rect primitives between the rounded corners*
20,1,$1+$1,$2,$3,$4,$5,0*
20,1,$1+$1,$4,$5,$6,$7,0*
20,1,$1+$1,$6,$7,$8,$9,0*
20,1,$1+$1,$8,$9,$2,$3,0*%
G04 Aperture macros list end*
%ADD10R,2.000000X2.000000*%
%ADD11C,2.000000*%
%ADD12R,3.200000X2.000000*%
%ADD13O,1.600000X2.000000*%
%ADD14RoundRect,0.250000X-0.350000X-0.450000X0.350000X-0.450000X0.350000X0.450000X-0.350000X0.450000X0*%
%ADD15C,0.800000*%
%ADD16C,6.000000*%
%ADD17R,3.000000X3.000000*%
%ADD18C,3.000000*%
%ADD19C,1.400000*%
G04 APERTURE END LIST*
D10*
G04 #@! TO.C,SW1*
X46562402Y-71160000D03*
D11*
X46562402Y-76160000D03*
X46562402Y-73660000D03*
D12*
X54062402Y-68060000D03*
X54062402Y-79260000D03*
D11*
X61062402Y-76160000D03*
X61062402Y-71160000D03*
G04 #@! TD*
D13*
G04 #@! TO.C,M2*
X19308040Y-63071633D03*
X21848040Y-63071633D03*
X24388040Y-63071633D03*
X26928040Y-63071633D03*
G04 #@! TD*
D14*
G04 #@! TO.C,R2*
X72762402Y-78740000D03*
X74762402Y-78740000D03*
G04 #@! TD*
D15*
G04 #@! TO.C,H2*
X71512402Y-96218166D03*
X72171412Y-94627176D03*
X72171412Y-97809156D03*
X73762402Y-93968166D03*
D16*
X73762402Y-96218166D03*
D15*
X73762402Y-98468166D03*
X75353392Y-94627176D03*
X75353392Y-97809156D03*
X76012402Y-96218166D03*
G04 #@! TD*
D14*
G04 #@! TO.C,R1*
X72762402Y-42152058D03*
X74762402Y-42152058D03*
G04 #@! TD*
D15*
G04 #@! TO.C,H1*
X1983392Y-96249156D03*
X2642402Y-94658166D03*
X2642402Y-97840146D03*
X4233392Y-93999156D03*
D16*
X4233392Y-96249156D03*
D15*
X4233392Y-98499156D03*
X5824382Y-94658166D03*
X5824382Y-97840146D03*
X6483392Y-96249156D03*
G04 #@! TD*
D10*
G04 #@! TO.C,SW1*
X46562402Y-103588166D03*
D11*
X46562402Y-108588166D03*
X46562402Y-106088166D03*
D12*
X54062402Y-100488166D03*
X54062402Y-111688166D03*
D11*
X61062402Y-108588166D03*
X61062402Y-103588166D03*
G04 #@! TD*
D15*
G04 #@! TO.C,H2*
X71512402Y-31361834D03*
X72171412Y-29770844D03*
X72171412Y-32952824D03*
X73762402Y-29111834D03*
D16*
X73762402Y-31361834D03*
D15*
X73762402Y-33611834D03*
X75353392Y-29770844D03*
X75353392Y-32952824D03*
X76012402Y-31361834D03*
G04 #@! TD*
G04 #@! TO.C,H3*
X71512402Y-85934164D03*
X72171412Y-84343174D03*
X72171412Y-87525154D03*
X73762402Y-83684164D03*
D16*
X73762402Y-85934164D03*
D15*
X73762402Y-88184164D03*
X75353392Y-84343174D03*
X75353392Y-87525154D03*
X76012402Y-85934164D03*
G04 #@! TD*
D14*
G04 #@! TO.C,R1*
X72762402Y-107008390D03*
X74762402Y-107008390D03*
G04 #@! TD*
G04 #@! TO.C,R2*
X72762402Y-111168166D03*
X74762402Y-111168166D03*
G04 #@! TD*
G04 #@! TO.C,R2*
X72762402Y-46311834D03*
X74762402Y-46311834D03*
G04 #@! TD*
D15*
G04 #@! TO.C,H3*
X71512402Y-53505998D03*
X72171412Y-51915008D03*
X72171412Y-55096988D03*
X73762402Y-51255998D03*
D16*
X73762402Y-53505998D03*
D15*
X73762402Y-55755998D03*
X75353392Y-51915008D03*
X75353392Y-55096988D03*
X76012402Y-53505998D03*
G04 #@! TD*
D14*
G04 #@! TO.C,R3*
X72762402Y-37421834D03*
X74762402Y-37421834D03*
G04 #@! TD*
D13*
G04 #@! TO.C,M2*
X19308040Y-30643467D03*
X21848040Y-30643467D03*
X24388040Y-30643467D03*
X26928040Y-30643467D03*
G04 #@! TD*
D10*
G04 #@! TO.C,SW1*
X46562402Y-38731834D03*
D11*
X46562402Y-43731834D03*
X46562402Y-41231834D03*
D12*
X54062402Y-35631834D03*
X54062402Y-46831834D03*
D11*
X61062402Y-43731834D03*
X61062402Y-38731834D03*
G04 #@! TD*
D14*
G04 #@! TO.C,R1*
X72762402Y-74580224D03*
X74762402Y-74580224D03*
G04 #@! TD*
D13*
G04 #@! TO.C,M2*
X19308040Y-95499799D03*
X21848040Y-95499799D03*
X24388040Y-95499799D03*
X26928040Y-95499799D03*
G04 #@! TD*
D15*
G04 #@! TO.C,H3*
X71512402Y-118362330D03*
X72171412Y-116771340D03*
X72171412Y-119953320D03*
X73762402Y-116112330D03*
D16*
X73762402Y-118362330D03*
D15*
X73762402Y-120612330D03*
X75353392Y-116771340D03*
X75353392Y-119953320D03*
X76012402Y-118362330D03*
G04 #@! TD*
D14*
G04 #@! TO.C,R3*
X72762402Y-69850000D03*
X74762402Y-69850000D03*
G04 #@! TD*
G04 #@! TO.C,R3*
X72762402Y-102278166D03*
X74762402Y-102278166D03*
G04 #@! TD*
D15*
G04 #@! TO.C,H2*
X71512402Y-63790000D03*
X72171412Y-62199010D03*
X72171412Y-65380990D03*
X73762402Y-61540000D03*
D16*
X73762402Y-63790000D03*
D15*
X73762402Y-66040000D03*
X75353392Y-62199010D03*
X75353392Y-65380990D03*
X76012402Y-63790000D03*
G04 #@! TD*
G04 #@! TO.C,H1*
X1983392Y-63820990D03*
X2642402Y-62230000D03*
X2642402Y-65411980D03*
X4233392Y-61570990D03*
D16*
X4233392Y-63820990D03*
D15*
X4233392Y-66070990D03*
X5824382Y-62230000D03*
X5824382Y-65411980D03*
X6483392Y-63820990D03*
G04 #@! TD*
G04 #@! TO.C,H1*
X1983392Y-31392824D03*
X2642402Y-29801834D03*
X2642402Y-32983814D03*
X4233392Y-29142824D03*
D16*
X4233392Y-31392824D03*
D15*
X4233392Y-33642824D03*
X5824382Y-29801834D03*
X5824382Y-32983814D03*
X6483392Y-31392824D03*
G04 #@! TD*
D17*
G04 #@! TO.C,J1*
X5182402Y-108628166D03*
D18*
X5182402Y-103548166D03*
G04 #@! TD*
D17*
G04 #@! TO.C,J1*
X5182402Y-43771834D03*
D18*
X5182402Y-38691834D03*
G04 #@! TD*
D19*
G04 #@! TO.C,U1*
X60960000Y-56471834D03*
X60960000Y-53931834D03*
X58420000Y-56471834D03*
X58420000Y-53931834D03*
X55880000Y-56471834D03*
X55880000Y-53931834D03*
X53340000Y-56471834D03*
X53340000Y-53931834D03*
X50800000Y-56471834D03*
X50800000Y-53931834D03*
X48260000Y-56471834D03*
X48260000Y-53931834D03*
X45720000Y-56471834D03*
X45720000Y-53931834D03*
X43180000Y-56471834D03*
X43180000Y-53931834D03*
X40640000Y-56471834D03*
X40640000Y-53931834D03*
X38100000Y-56471834D03*
X38100000Y-53931834D03*
X60960000Y-31071834D03*
X60960000Y-28531834D03*
X58420000Y-31071834D03*
X58420000Y-28531834D03*
X55880000Y-31071834D03*
X55880000Y-28531834D03*
X53340000Y-31071834D03*
X53340000Y-28531834D03*
X50800000Y-31071834D03*
X50800000Y-28531834D03*
X48260000Y-31071834D03*
X48260000Y-28531834D03*
X45720000Y-31071834D03*
X45720000Y-28531834D03*
X43180000Y-31071834D03*
X43180000Y-28531834D03*
X40640000Y-31071834D03*
X40640000Y-28531834D03*
X38100000Y-31071834D03*
X38100000Y-28531834D03*
G04 #@! TD*
D17*
G04 #@! TO.C,J6*
X5182402Y-54784568D03*
D18*
X5182402Y-49704568D03*
G04 #@! TD*
D19*
G04 #@! TO.C,U1*
X60960000Y-88900000D03*
X60960000Y-86360000D03*
X58420000Y-88900000D03*
X58420000Y-86360000D03*
X55880000Y-88900000D03*
X55880000Y-86360000D03*
X53340000Y-88900000D03*
X53340000Y-86360000D03*
X50800000Y-88900000D03*
X50800000Y-86360000D03*
X48260000Y-88900000D03*
X48260000Y-86360000D03*
X45720000Y-88900000D03*
X45720000Y-86360000D03*
X43180000Y-88900000D03*
X43180000Y-86360000D03*
X40640000Y-88900000D03*
X40640000Y-86360000D03*
X38100000Y-88900000D03*
X38100000Y-86360000D03*
X60960000Y-63500000D03*
X60960000Y-60960000D03*
X58420000Y-63500000D03*
X58420000Y-60960000D03*
X55880000Y-63500000D03*
X55880000Y-60960000D03*
X53340000Y-63500000D03*
X53340000Y-60960000D03*
X50800000Y-63500000D03*
X50800000Y-60960000D03*
X48260000Y-63500000D03*
X48260000Y-60960000D03*
X45720000Y-63500000D03*
X45720000Y-60960000D03*
X43180000Y-63500000D03*
X43180000Y-60960000D03*
X40640000Y-63500000D03*
X40640000Y-60960000D03*
X38100000Y-63500000D03*
X38100000Y-60960000D03*
G04 #@! TD*
D17*
G04 #@! TO.C,J6*
X5182402Y-119640900D03*
D18*
X5182402Y-114560900D03*
G04 #@! TD*
D17*
G04 #@! TO.C,J1*
X5182402Y-76200000D03*
D18*
X5182402Y-71120000D03*
G04 #@! TD*
D17*
G04 #@! TO.C,J6*
X5182402Y-87212734D03*
D18*
X5182402Y-82132734D03*
G04 #@! TD*
D19*
G04 #@! TO.C,U1*
X60960000Y-121328166D03*
X60960000Y-118788166D03*
X58420000Y-121328166D03*
X58420000Y-118788166D03*
X55880000Y-121328166D03*
X55880000Y-118788166D03*
X53340000Y-121328166D03*
X53340000Y-118788166D03*
X50800000Y-121328166D03*
X50800000Y-118788166D03*
X48260000Y-121328166D03*
X48260000Y-118788166D03*
X45720000Y-121328166D03*
X45720000Y-118788166D03*
X43180000Y-121328166D03*
X43180000Y-118788166D03*
X40640000Y-121328166D03*
X40640000Y-118788166D03*
X38100000Y-121328166D03*
X38100000Y-118788166D03*
X60960000Y-95928166D03*
X60960000Y-93388166D03*
X58420000Y-95928166D03*
X58420000Y-93388166D03*
X55880000Y-95928166D03*
X55880000Y-93388166D03*
X53340000Y-95928166D03*
X53340000Y-93388166D03*
X50800000Y-95928166D03*
X50800000Y-93388166D03*
X48260000Y-95928166D03*
X48260000Y-93388166D03*
X45720000Y-95928166D03*
X45720000Y-93388166D03*
X43180000Y-95928166D03*
X43180000Y-93388166D03*
X40640000Y-95928166D03*
X40640000Y-93388166D03*
X38100000Y-95928166D03*
X38100000Y-93388166D03*
G04 #@! TD*
M02*
