M48
; DRILL file {KiCad 7.0.9-7.0.9~ubuntu22.04.1} date Sun Dec 17 14:41:55 2023
; FORMAT={-:-/ absolute / metric / decimal}
; #@! TF.CreationDate,2023-12-17T14:41:55+07:00
; #@! TF.GenerationSoftware,Kicad,Pcbnew,7.0.9-7.0.9~ubuntu22.04.1
; #@! TF.FileFunction,MixedPlating,1,2
FMAT,2
METRIC
; #@! TA.AperFunction,Plated,PTH,ComponentDrill
T1C0.500
; #@! TA.AperFunction,Plated,PTH,ComponentDrill
T2C0.800
; #@! TA.AperFunction,Plated,PTH,ComponentDrill
T3C1.000
; #@! TA.AperFunction,Plated,PTH,ComponentDrill
T4C1.500
; #@! TA.AperFunction,Plated,PTH,ComponentDrill
T5C1.520
; #@! TA.AperFunction,Plated,PTH,ComponentDrill
T6C3.000
%
G90
G05
T1
X1.983Y-31.393
X1.983Y-63.821
X1.983Y-96.249
X2.642Y-29.802
X2.642Y-32.984
X2.642Y-62.23
X2.642Y-65.412
X2.642Y-94.658
X2.642Y-97.84
X4.233Y-29.143
X4.233Y-33.643
X4.233Y-61.571
X4.233Y-66.071
X4.233Y-93.999
X4.233Y-98.499
X5.824Y-29.802
X5.824Y-32.984
X5.824Y-62.23
X5.824Y-65.412
X5.824Y-94.658
X5.824Y-97.84
X6.483Y-31.393
X6.483Y-63.821
X6.483Y-96.249
X71.512Y-31.362
X71.512Y-53.506
X71.512Y-63.79
X71.512Y-85.934
X71.512Y-96.218
X71.512Y-118.362
X72.171Y-29.771
X72.171Y-32.953
X72.171Y-51.915
X72.171Y-55.097
X72.171Y-62.199
X72.171Y-65.381
X72.171Y-84.343
X72.171Y-87.525
X72.171Y-94.627
X72.171Y-97.809
X72.171Y-116.771
X72.171Y-119.953
X73.762Y-29.112
X73.762Y-33.612
X73.762Y-51.256
X73.762Y-55.756
X73.762Y-61.54
X73.762Y-66.04
X73.762Y-83.684
X73.762Y-88.184
X73.762Y-93.968
X73.762Y-98.468
X73.762Y-116.112
X73.762Y-120.612
X75.353Y-29.771
X75.353Y-32.953
X75.353Y-51.915
X75.353Y-55.097
X75.353Y-62.199
X75.353Y-65.381
X75.353Y-84.343
X75.353Y-87.525
X75.353Y-94.627
X75.353Y-97.809
X75.353Y-116.771
X75.353Y-119.953
X76.012Y-31.362
X76.012Y-53.506
X76.012Y-63.79
X76.012Y-85.934
X76.012Y-96.218
X76.012Y-118.362
T2
X38.1Y-28.532
X38.1Y-31.072
X38.1Y-53.932
X38.1Y-56.472
X38.1Y-60.96
X38.1Y-63.5
X38.1Y-86.36
X38.1Y-88.9
X38.1Y-93.388
X38.1Y-95.928
X38.1Y-118.788
X38.1Y-121.328
X40.64Y-28.532
X40.64Y-31.072
X40.64Y-53.932
X40.64Y-56.472
X40.64Y-60.96
X40.64Y-63.5
X40.64Y-86.36
X40.64Y-88.9
X40.64Y-93.388
X40.64Y-95.928
X40.64Y-118.788
X40.64Y-121.328
X43.18Y-28.532
X43.18Y-31.072
X43.18Y-53.932
X43.18Y-56.472
X43.18Y-60.96
X43.18Y-63.5
X43.18Y-86.36
X43.18Y-88.9
X43.18Y-93.388
X43.18Y-95.928
X43.18Y-118.788
X43.18Y-121.328
X45.72Y-28.532
X45.72Y-31.072
X45.72Y-53.932
X45.72Y-56.472
X45.72Y-60.96
X45.72Y-63.5
X45.72Y-86.36
X45.72Y-88.9
X45.72Y-93.388
X45.72Y-95.928
X45.72Y-118.788
X45.72Y-121.328
X48.26Y-28.532
X48.26Y-31.072
X48.26Y-53.932
X48.26Y-56.472
X48.26Y-60.96
X48.26Y-63.5
X48.26Y-86.36
X48.26Y-88.9
X48.26Y-93.388
X48.26Y-95.928
X48.26Y-118.788
X48.26Y-121.328
X50.8Y-28.532
X50.8Y-31.072
X50.8Y-53.932
X50.8Y-56.472
X50.8Y-60.96
X50.8Y-63.5
X50.8Y-86.36
X50.8Y-88.9
X50.8Y-93.388
X50.8Y-95.928
X50.8Y-118.788
X50.8Y-121.328
X53.34Y-28.532
X53.34Y-31.072
X53.34Y-53.932
X53.34Y-56.472
X53.34Y-60.96
X53.34Y-63.5
X53.34Y-86.36
X53.34Y-88.9
X53.34Y-93.388
X53.34Y-95.928
X53.34Y-118.788
X53.34Y-121.328
X55.88Y-28.532
X55.88Y-31.072
X55.88Y-53.932
X55.88Y-56.472
X55.88Y-60.96
X55.88Y-63.5
X55.88Y-86.36
X55.88Y-88.9
X55.88Y-93.388
X55.88Y-95.928
X55.88Y-118.788
X55.88Y-121.328
X58.42Y-28.532
X58.42Y-31.072
X58.42Y-53.932
X58.42Y-56.472
X58.42Y-60.96
X58.42Y-63.5
X58.42Y-86.36
X58.42Y-88.9
X58.42Y-93.388
X58.42Y-95.928
X58.42Y-118.788
X58.42Y-121.328
X60.96Y-28.532
X60.96Y-31.072
X60.96Y-53.932
X60.96Y-56.472
X60.96Y-60.96
X60.96Y-63.5
X60.96Y-86.36
X60.96Y-88.9
X60.96Y-93.388
X60.96Y-95.928
X60.96Y-118.788
X60.96Y-121.328
T3
X19.308Y-30.643
X19.308Y-63.072
X19.308Y-95.5
X21.848Y-30.643
X21.848Y-63.072
X21.848Y-95.5
X24.388Y-30.643
X24.388Y-63.072
X24.388Y-95.5
X26.928Y-30.643
X26.928Y-63.072
X26.928Y-95.5
X46.562Y-38.732
X46.562Y-41.232
X46.562Y-43.732
X46.562Y-71.16
X46.562Y-73.66
X46.562Y-76.16
X46.562Y-103.588
X46.562Y-106.088
X46.562Y-108.588
X61.062Y-38.732
X61.062Y-43.732
X61.062Y-71.16
X61.062Y-76.16
X61.062Y-103.588
X61.062Y-108.588
T5
X5.182Y-38.692
X5.182Y-43.772
X5.182Y-49.705
X5.182Y-54.785
X5.182Y-71.12
X5.182Y-76.2
X5.182Y-82.133
X5.182Y-87.213
X5.182Y-103.548
X5.182Y-108.628
X5.182Y-114.561
X5.182Y-119.641
T6
X4.233Y-31.393
X4.233Y-63.821
X4.233Y-96.249
X73.762Y-31.362
X73.762Y-53.506
X73.762Y-63.79
X73.762Y-85.934
X73.762Y-96.218
X73.762Y-118.362
T4
X53.412Y-35.632G85X54.712Y-35.632
G05
X53.412Y-46.832G85X54.712Y-46.832
G05
X53.412Y-68.06G85X54.712Y-68.06
G05
X53.412Y-79.26G85X54.712Y-79.26
G05
X53.412Y-100.488G85X54.712Y-100.488
G05
X53.412Y-111.688G85X54.712Y-111.688
G05
T0
M30
