G04 #@! TF.GenerationSoftware,KiCad,Pcbnew,7.0.9-7.0.9~ubuntu22.04.1*
G04 #@! TF.CreationDate,2023-12-17T14:41:55+07:00*
G04 #@! TF.ProjectId,final-production,66696e61-6c2d-4707-926f-64756374696f,rev?*
G04 #@! TF.SameCoordinates,Original*
G04 #@! TF.FileFunction,Profile,NP*
%FSLAX46Y46*%
G04 Gerber Fmt 4.6, Leading zero omitted, Abs format (unit mm)*
G04 Created by KiCad (PCBNEW 7.0.9-7.0.9~ubuntu22.04.1) date 2023-12-17 14:41:55*
%MOMM*%
%LPD*%
G01*
G04 APERTURE LIST*
G04 #@! TA.AperFunction,Profile*
%ADD10C,0.100000*%
G04 #@! TD*
G04 APERTURE END LIST*
D10*
X-915911Y-60043233D02*
X-959583Y-60119118D01*
X77644629Y-26799920D02*
X77557083Y-26798726D01*
X43317034Y-59224146D02*
X34820876Y-59223465D01*
X78473843Y-59478566D02*
X78397959Y-59434894D01*
X78193643Y-122968249D02*
X78274708Y-122935170D01*
X69309350Y-59226231D02*
X69309350Y-58720714D01*
X79304315Y-88997191D02*
X79305509Y-88909646D01*
X402233Y-123058397D02*
X489605Y-123064042D01*
X402233Y-58202065D02*
X489605Y-58207710D01*
X78686829Y-59631889D02*
X78618465Y-59577191D01*
X79305509Y-56481480D02*
X79296289Y-28422501D01*
X8828560Y-58720714D02*
X8828560Y-59221380D01*
X78075246Y-26872157D02*
X77990817Y-26848979D01*
X-795736Y-122408939D02*
X-739828Y-122476320D01*
X31820876Y-91148880D02*
X31820876Y-91651390D01*
X77732000Y-91661894D02*
X77644629Y-91656252D01*
X-983083Y-57257384D02*
X-941941Y-57334669D01*
X79296289Y-28422501D02*
X79289096Y-28335243D01*
X78752325Y-92118158D02*
X78686829Y-92060055D01*
X23324718Y-91148880D02*
X23324718Y-91148880D01*
X-136798Y-91790783D02*
X-216075Y-91827942D01*
X-1035082Y-27848885D02*
X-1066714Y-27930525D01*
X-1154960Y-89100562D02*
X-1143332Y-89187341D01*
X79006356Y-122328140D02*
X79053830Y-122254574D01*
X78752325Y-59689992D02*
X78686829Y-59631889D01*
X-868438Y-92397833D02*
X-915911Y-92471399D01*
X46317034Y-58720714D02*
X46317034Y-58215914D01*
X43317034Y-91652312D02*
X34820876Y-91651631D01*
X110910Y-59275937D02*
X26906Y-59300617D01*
X11828560Y-58720714D02*
X11828560Y-58720714D01*
X-511300Y-92015286D02*
X-578680Y-92071192D01*
X23324718Y-59222543D02*
X23324718Y-58720714D01*
X79031120Y-92454198D02*
X78982348Y-92381487D01*
X-55734Y-59329535D02*
X-136798Y-59362617D01*
X-848146Y-122338804D02*
X-795736Y-122408939D01*
X-941941Y-89762835D02*
X-896923Y-89837929D01*
X77732000Y-26805562D02*
X77644629Y-26799920D01*
X77644629Y-59228086D02*
X77557083Y-59226892D01*
X78686829Y-92060055D02*
X78618465Y-92005357D01*
X-441164Y-27106545D02*
X-511300Y-27158954D01*
X79216414Y-27993234D02*
X79187502Y-27910592D01*
X-1160758Y-28356916D02*
X-1166402Y-28444288D01*
X78982348Y-27525155D02*
X78929942Y-27455018D01*
X-868438Y-59969667D02*
X-915911Y-60043233D01*
X78579078Y-90334920D02*
X78649214Y-90282513D01*
X79031120Y-60026032D02*
X78982348Y-59953321D01*
X78618465Y-59577191D02*
X78547408Y-59526039D01*
X143414Y-123014973D02*
X228914Y-123033831D01*
X78955205Y-122399197D02*
X79006356Y-122328140D01*
X20324718Y-91148880D02*
X20324718Y-91650468D01*
X-1136192Y-60611763D02*
X-1150679Y-60698110D01*
X78506368Y-57955528D02*
X78579078Y-57906754D01*
X31820876Y-58213693D02*
X31820876Y-58720714D01*
X77768994Y-123069855D02*
X77855772Y-123058233D01*
X-24159Y-122964352D02*
X58984Y-122991794D01*
X78240028Y-59359395D02*
X78158388Y-59327764D01*
X78431272Y-90428708D02*
X78506368Y-90383694D01*
X79187502Y-92766924D02*
X79154425Y-92685859D01*
X-1035082Y-92705217D02*
X-1066714Y-92786857D01*
X78274708Y-58078838D02*
X78353986Y-58041681D01*
X34820876Y-58720714D02*
X34820876Y-58214153D01*
X78579078Y-122763086D02*
X78649214Y-122710679D01*
X-24159Y-90536186D02*
X58984Y-90563628D01*
X-983083Y-89685550D02*
X-941941Y-89762835D01*
X-915911Y-27615067D02*
X-959583Y-27690952D01*
X-1106928Y-121786732D02*
X-1082247Y-121870735D01*
X-293361Y-59440918D02*
X-368455Y-59485935D01*
X79274108Y-89257881D02*
X79288594Y-89171534D01*
X79006356Y-57471808D02*
X79053830Y-57398242D01*
X-339618Y-122813549D02*
X-263733Y-122857221D01*
X79006356Y-89899974D02*
X79053830Y-89826408D01*
X79076133Y-92529294D02*
X79031120Y-92454198D01*
X79296289Y-93278833D02*
X79289096Y-93191575D01*
X-1127307Y-56845250D02*
X-1106928Y-56930400D01*
X-185726Y-122896979D02*
X-105799Y-122932720D01*
X-1166402Y-93300620D02*
X-1167598Y-93388166D01*
X78955205Y-89971031D02*
X79006356Y-89899974D01*
X-1167598Y-93388166D02*
X-1162162Y-121441471D01*
X79305509Y-121337812D02*
X79296289Y-93278833D01*
X77905318Y-59258289D02*
X77818971Y-59243804D01*
X77681736Y-90648886D02*
X77768994Y-90641689D01*
X78158388Y-91755930D02*
X78075246Y-91728489D01*
X-618108Y-122602127D02*
X-552610Y-122660229D01*
X-1082247Y-89442569D02*
X-1053327Y-89525210D01*
X-1143332Y-89187341D02*
X-1127307Y-89273416D01*
X196059Y-26827393D02*
X110910Y-26847771D01*
X79187502Y-27910592D02*
X79154425Y-27829527D01*
X79296289Y-60850667D02*
X79289096Y-60763409D01*
X78900507Y-57611230D02*
X78955205Y-57542865D01*
X228914Y-58177499D02*
X315261Y-58191986D01*
X77990817Y-59277145D02*
X77905318Y-59258289D01*
X-983083Y-122113716D02*
X-941941Y-122191001D01*
X78955205Y-57542865D02*
X79006356Y-57471808D01*
X54813192Y-59225068D02*
X46317034Y-59224387D01*
X368913Y-26799743D02*
X282135Y-26811370D01*
X77681736Y-123077052D02*
X77768994Y-123069855D01*
X79241088Y-28077238D02*
X79216414Y-27993234D01*
X-1106928Y-89358566D02*
X-1082247Y-89442569D01*
X368913Y-59227909D02*
X282135Y-59239536D01*
X-1166402Y-60872454D02*
X-1167598Y-60960000D01*
X78075246Y-59300323D02*
X77990817Y-59277145D01*
X-704488Y-92192911D02*
X-762590Y-92258408D01*
X78814782Y-92179515D02*
X78752325Y-92118158D01*
X-413185Y-57909744D02*
X-339618Y-57957217D01*
X57813192Y-58217676D02*
X66309350Y-58218977D01*
X-817287Y-92326774D02*
X-868438Y-92397833D01*
X11828560Y-59221621D02*
X11828560Y-58720714D01*
X-817287Y-59898608D02*
X-868438Y-59969667D01*
X-105799Y-90504554D02*
X-24159Y-90536186D01*
X456171Y-91648875D02*
X368913Y-91656075D01*
X-1094155Y-92870000D02*
X-1117334Y-92954430D01*
X78649214Y-122710679D02*
X78716596Y-122654774D01*
X57813192Y-91653475D02*
X57813192Y-91148880D01*
X78473843Y-91906732D02*
X78397959Y-91863060D01*
X78547408Y-91954205D02*
X78473843Y-91906732D01*
X78158388Y-59327764D02*
X78075246Y-59300323D01*
X20324718Y-90640098D02*
X20324718Y-91148880D01*
X78982348Y-92381487D02*
X78929942Y-92311350D01*
X77941848Y-90614048D02*
X78026998Y-90593674D01*
X78649214Y-90282513D02*
X78716596Y-90226608D01*
X77990817Y-26848979D02*
X77905318Y-26830123D01*
X78618465Y-92005357D02*
X78547408Y-91954205D01*
X79289096Y-93191575D02*
X79277476Y-93104797D01*
X-739828Y-57619988D02*
X-680568Y-57684439D01*
X77644629Y-91656252D02*
X77557083Y-91655058D01*
X77681736Y-58220720D02*
X77768994Y-58213523D01*
X79274108Y-121686047D02*
X79288594Y-121599700D01*
X-680568Y-57684439D02*
X-618108Y-57745795D01*
X-263733Y-58000889D02*
X-185726Y-58040647D01*
X34820876Y-58214153D02*
X43317034Y-58215455D01*
X79304315Y-56569025D02*
X79305509Y-56481480D01*
X-511300Y-59587120D02*
X-578680Y-59643026D01*
X78158388Y-26899598D02*
X78075246Y-26872157D01*
X-413185Y-90337910D02*
X-339618Y-90385383D01*
X577152Y-90637073D02*
X8828560Y-90638337D01*
X228914Y-90605665D02*
X315261Y-90620152D01*
X79288594Y-56743368D02*
X79298671Y-56656396D01*
X54813192Y-58720714D02*
X54813192Y-59225068D01*
X-1162162Y-89013305D02*
X-1154960Y-89100562D01*
X-1066714Y-60358691D02*
X-1094155Y-60441834D01*
X79076133Y-60101128D02*
X79031120Y-60026032D01*
X43317034Y-58720714D02*
X43317034Y-59224146D01*
X79232073Y-56999644D02*
X79255252Y-56915214D01*
X34820876Y-91651631D02*
X34820876Y-91148880D01*
X-1117334Y-92954430D02*
X-1136192Y-93039929D01*
X8828560Y-59221380D02*
X456171Y-59220709D01*
X43317034Y-58215455D02*
X43317034Y-58720714D01*
X77855772Y-123058233D02*
X77941848Y-123042214D01*
X-339618Y-90385383D02*
X-263733Y-90429055D01*
X-413185Y-122766076D02*
X-339618Y-122813549D01*
X79097502Y-89750524D02*
X79137260Y-89672518D01*
X110910Y-91704103D02*
X26906Y-91728783D01*
X79274108Y-56829715D02*
X79288594Y-56743368D01*
X78506368Y-90383694D02*
X78579078Y-90334920D01*
X315261Y-123048318D02*
X402233Y-123058397D01*
X-1150679Y-60698110D02*
X-1160758Y-60785082D01*
X-1066714Y-92786857D02*
X-1094155Y-92870000D01*
X78111002Y-122997163D02*
X78193643Y-122968249D01*
X-1160758Y-60785082D02*
X-1166402Y-60872454D01*
X20324718Y-91650468D02*
X11828560Y-91649787D01*
X78982348Y-59953321D02*
X78929942Y-59883184D01*
X78397959Y-59434894D02*
X78319954Y-59395136D01*
X315261Y-58191986D02*
X402233Y-58202065D01*
X78319954Y-26966970D02*
X78240028Y-26931229D01*
X78026998Y-58165508D02*
X78111002Y-58140831D01*
X-1053327Y-89525210D02*
X-1020244Y-89606273D01*
X79053830Y-57398242D02*
X79097502Y-57322358D01*
X110910Y-26847771D02*
X26906Y-26872451D01*
X78781048Y-57739184D02*
X78842405Y-57676726D01*
X46317034Y-59224387D02*
X46317034Y-58720714D01*
X77557083Y-59226892D02*
X69309350Y-59226231D01*
X-1127307Y-89273416D02*
X-1106928Y-89358566D01*
X-1150679Y-93126276D02*
X-1160758Y-93213248D01*
X-999341Y-60197124D02*
X-1035082Y-60277051D01*
X-1082247Y-121870735D02*
X-1053327Y-121953376D01*
X79261460Y-28162389D02*
X79241088Y-28077238D01*
X11828560Y-91649787D02*
X11828560Y-91148880D01*
X79261460Y-60590555D02*
X79241088Y-60505404D01*
X78431272Y-58000542D02*
X78506368Y-57955528D01*
X54813192Y-58217216D02*
X54813192Y-58217216D01*
X-1066714Y-27930525D02*
X-1094155Y-28013668D01*
X57813192Y-91148880D02*
X57813192Y-91148880D01*
X-552610Y-90232063D02*
X-484244Y-90286760D01*
X79288594Y-89171534D02*
X79298671Y-89084562D01*
X79305509Y-88909646D02*
X79296289Y-60850667D01*
X-643132Y-92130452D02*
X-704488Y-92192911D01*
X11828560Y-58210630D02*
X20324718Y-58211932D01*
X-959583Y-27690952D02*
X-999341Y-27768958D01*
X34820876Y-91148880D02*
X34820876Y-91148880D01*
X79204632Y-57082786D02*
X79232073Y-56999644D01*
X79298671Y-56656396D02*
X79304315Y-56569025D01*
X78240028Y-91787561D02*
X78158388Y-91755930D01*
X78716596Y-122654774D02*
X78781048Y-122595516D01*
X489605Y-58207710D02*
X577152Y-58208907D01*
X78929942Y-27455018D02*
X78874038Y-27387636D01*
X78579078Y-57906754D02*
X78649214Y-57854347D01*
X79097502Y-122178690D02*
X79137260Y-122100684D01*
X58984Y-90563628D02*
X143414Y-90586807D01*
X-915911Y-92471399D02*
X-959583Y-92547284D01*
X78752325Y-27261826D02*
X78686829Y-27203723D01*
X46317034Y-58215914D02*
X54813192Y-58217216D01*
X-762590Y-59830242D02*
X-817287Y-59898608D01*
X79097502Y-57322358D02*
X79137260Y-57244352D01*
X78781048Y-122595516D02*
X78842405Y-122533058D01*
X-1136192Y-93039929D02*
X-1150679Y-93126276D01*
X69309350Y-91148880D02*
X69309350Y-90647603D01*
X-739828Y-90048154D02*
X-680568Y-90112605D01*
X-1053327Y-121953376D02*
X-1020244Y-122034439D01*
X69309350Y-90647603D02*
X77681736Y-90648886D01*
X78353986Y-122898013D02*
X78431272Y-122856874D01*
X8828560Y-91649546D02*
X456171Y-91648875D01*
X31820876Y-90641859D02*
X31820876Y-91148880D01*
X78397959Y-27006728D02*
X78319954Y-26966970D01*
X23324718Y-58720714D02*
X23324718Y-58212392D01*
X-578680Y-59643026D02*
X-643132Y-59702286D01*
X-704488Y-27336579D02*
X-762590Y-27402076D01*
X79277476Y-93104797D02*
X79261460Y-93018721D01*
X-552610Y-57803897D02*
X-484244Y-57858594D01*
X54813192Y-90645382D02*
X54813192Y-91148880D01*
X34820876Y-90642319D02*
X43317034Y-90643621D01*
X78193643Y-90540083D02*
X78274708Y-90507004D01*
X-1154960Y-121528728D02*
X-1143332Y-121615507D01*
X577152Y-58208907D02*
X8828560Y-58210171D01*
X57813192Y-90645842D02*
X66309350Y-90647143D01*
X-1167598Y-60960000D02*
X-1162162Y-89013305D01*
X143414Y-90586807D02*
X228914Y-90605665D01*
X66309350Y-58218977D02*
X66309350Y-58218977D01*
X-1127307Y-121701582D02*
X-1106928Y-121786732D01*
X77905318Y-91686455D02*
X77818971Y-91671970D01*
X34820876Y-58720714D02*
X34820876Y-58720714D01*
X78353986Y-58041681D02*
X78431272Y-58000542D01*
X77768994Y-58213523D02*
X77855772Y-58201901D01*
X-1117334Y-60526264D02*
X-1136192Y-60611763D01*
X-1154960Y-56672396D02*
X-1143332Y-56759175D01*
X-959583Y-60119118D02*
X-999341Y-60197124D01*
X-1167598Y-28531834D02*
X-1162162Y-56585139D01*
X54813192Y-91148880D02*
X54813192Y-91653234D01*
X57813192Y-91148880D02*
X57813192Y-90645842D01*
X79154425Y-27829527D02*
X79117270Y-27750249D01*
X-762590Y-92258408D02*
X-817287Y-92326774D01*
X-24159Y-58108020D02*
X58984Y-58135462D01*
X-1143332Y-56759175D02*
X-1127307Y-56845250D01*
X57813192Y-59225309D02*
X57813192Y-58720714D01*
X78547408Y-27097873D02*
X78473843Y-27050400D01*
X79288594Y-121599700D02*
X79298671Y-121512728D01*
X78506368Y-122811860D02*
X78579078Y-122763086D01*
X-1020244Y-89606273D02*
X-983083Y-89685550D01*
X-643132Y-27274120D02*
X-704488Y-27336579D01*
X78111002Y-58140831D02*
X78193643Y-58111917D01*
X79154425Y-60257693D02*
X79117270Y-60178415D01*
X78874038Y-27387636D02*
X78814782Y-27323183D01*
X66309350Y-58720714D02*
X66309350Y-59225990D01*
X79204632Y-121939118D02*
X79232073Y-121855976D01*
X-263733Y-90429055D02*
X-185726Y-90468813D01*
X43317034Y-90643621D02*
X43317034Y-91148880D01*
X79031120Y-27597866D02*
X78982348Y-27525155D01*
X-105799Y-122932720D02*
X-24159Y-122964352D01*
X79117270Y-92606581D02*
X79076133Y-92529294D01*
X46317034Y-90644080D02*
X54813192Y-90645382D01*
X-868438Y-27541501D02*
X-915911Y-27615067D01*
X402233Y-90630231D02*
X489605Y-90635876D01*
X-941941Y-122191001D02*
X-896923Y-122266095D01*
X46317034Y-91148880D02*
X46317034Y-91148880D01*
X46317034Y-91148880D02*
X46317034Y-90644080D01*
X79241088Y-92933570D02*
X79216414Y-92849566D01*
X-136798Y-59362617D02*
X-216075Y-59399776D01*
X20324718Y-58211932D02*
X20324718Y-58720714D01*
X-484244Y-57858594D02*
X-413185Y-57909744D01*
X66309350Y-90647143D02*
X66309350Y-91148880D01*
X-1106928Y-56930400D02*
X-1082247Y-57014403D01*
X79232073Y-89427810D02*
X79255252Y-89343380D01*
X-999341Y-27768958D02*
X-1035082Y-27848885D01*
X20324718Y-59222302D02*
X11828560Y-59221621D01*
X-795736Y-57552607D02*
X-739828Y-57619988D01*
X78814782Y-59751349D02*
X78752325Y-59689992D01*
X78274708Y-90507004D02*
X78353986Y-90469847D01*
X79277476Y-60676631D02*
X79261460Y-60590555D01*
X78874038Y-59815802D02*
X78814782Y-59751349D01*
X11828560Y-91148880D02*
X11828560Y-90638796D01*
X-185726Y-58040647D02*
X-105799Y-58076388D01*
X78900507Y-90039396D02*
X78955205Y-89971031D01*
X-1053327Y-57097044D02*
X-1020244Y-57178107D01*
X368913Y-91656075D02*
X282135Y-91667702D01*
X-680568Y-90112605D02*
X-618108Y-90173961D01*
X23324718Y-90640558D02*
X31820876Y-90641859D01*
X11828560Y-58720714D02*
X11828560Y-58210630D01*
X-441164Y-59534711D02*
X-511300Y-59587120D01*
X-1035082Y-60277051D02*
X-1066714Y-60358691D01*
X-368455Y-27057769D02*
X-441164Y-27106545D01*
X-643132Y-59702286D02*
X-704488Y-59764745D01*
X79154425Y-92685859D02*
X79117270Y-92606581D01*
X-941941Y-57334669D02*
X-896923Y-57409763D01*
X78026998Y-123021840D02*
X78111002Y-122997163D01*
X66309350Y-91654156D02*
X57813192Y-91653475D01*
X-1117334Y-28098098D02*
X-1136192Y-28183597D01*
X78319954Y-59395136D02*
X78240028Y-59359395D01*
X-680568Y-122540771D02*
X-618108Y-122602127D01*
X66309350Y-58218977D02*
X66309350Y-58720714D01*
X26906Y-91728783D02*
X-55734Y-91757701D01*
X-293361Y-27012752D02*
X-368455Y-27057769D01*
X78716596Y-57798442D02*
X78781048Y-57739184D01*
X79232073Y-121855976D02*
X79255252Y-121771546D01*
X79255252Y-121771546D02*
X79274108Y-121686047D01*
X77855772Y-58201901D02*
X77941848Y-58185882D01*
X78716596Y-90226608D02*
X78781048Y-90167350D01*
X78781048Y-90167350D02*
X78842405Y-90104892D01*
X-216075Y-91827942D02*
X-293361Y-91869084D01*
X79255252Y-89343380D02*
X79274108Y-89257881D01*
X78814782Y-27323183D02*
X78752325Y-27261826D01*
X54813192Y-91653234D02*
X46317034Y-91652553D01*
X46317034Y-91652553D02*
X46317034Y-91148880D01*
X77990817Y-91705311D02*
X77905318Y-91686455D01*
X31820876Y-58720714D02*
X31820876Y-59223224D01*
X77941848Y-123042214D02*
X78026998Y-123021840D01*
X79137260Y-89672518D02*
X79173001Y-89592592D01*
X78618465Y-27149025D02*
X78547408Y-27097873D01*
X-896923Y-89837929D02*
X-848146Y-89910638D01*
X26906Y-26872451D02*
X-55734Y-26901369D01*
X78473843Y-27050400D02*
X78397959Y-27006728D01*
X77905318Y-26830123D02*
X77818971Y-26815638D01*
X-1136192Y-28183597D02*
X-1150679Y-28269944D01*
X11828560Y-91148880D02*
X11828560Y-91148880D01*
X79204632Y-89510952D02*
X79232073Y-89427810D01*
X20324718Y-58720714D02*
X20324718Y-59222302D01*
X282135Y-26811370D02*
X196059Y-26827393D01*
X196059Y-91683725D02*
X110910Y-91704103D01*
X-1082247Y-57014403D02*
X-1053327Y-57097044D01*
X66309350Y-91148880D02*
X66309350Y-91654156D01*
X31820876Y-91651390D02*
X23324718Y-91650709D01*
X-618108Y-57745795D02*
X-552610Y-57803897D01*
X-216075Y-59399776D02*
X-293361Y-59440918D01*
X78929942Y-92311350D02*
X78874038Y-92243968D01*
X79173001Y-122020758D02*
X79204632Y-121939118D01*
X23324718Y-58720714D02*
X23324718Y-58720714D01*
X79173001Y-89592592D02*
X79204632Y-89510952D01*
X79117270Y-27750249D02*
X79076133Y-27672962D01*
X43317034Y-91148880D02*
X43317034Y-91652312D01*
X79255252Y-56915214D02*
X79274108Y-56829715D01*
X-578680Y-27214860D02*
X-643132Y-27274120D01*
X8828560Y-58210171D02*
X8828560Y-58720714D01*
X79117270Y-60178415D02*
X79076133Y-60101128D01*
X79053830Y-122254574D02*
X79097502Y-122178690D01*
X57813192Y-58720714D02*
X57813192Y-58217676D01*
X-263733Y-122857221D02*
X-185726Y-122896979D01*
X79137260Y-122100684D02*
X79173001Y-122020758D01*
X79289096Y-28335243D02*
X79277476Y-28248465D01*
X78111002Y-90568997D02*
X78193643Y-90540083D01*
X77818971Y-91671970D02*
X77732000Y-91661894D01*
X-1160758Y-93213248D02*
X-1166402Y-93300620D01*
X-552610Y-122660229D02*
X-484244Y-122714926D01*
X79298671Y-89084562D02*
X79304315Y-88997191D01*
X78686829Y-27203723D02*
X78618465Y-27149025D01*
X79261460Y-93018721D02*
X79241088Y-92933570D01*
X-1166402Y-28444288D02*
X-1167598Y-28531834D01*
X23324718Y-91650709D02*
X23324718Y-91148880D01*
X78929942Y-59883184D02*
X78874038Y-59815802D01*
X-368455Y-91914101D02*
X-441164Y-91962877D01*
X78900507Y-122467562D02*
X78955205Y-122399197D01*
X-293361Y-91869084D02*
X-368455Y-91914101D01*
X78319954Y-91823302D02*
X78240028Y-91787561D01*
X-848146Y-89910638D02*
X-795736Y-89980773D01*
X77855772Y-90630067D02*
X77941848Y-90614048D01*
X-441164Y-91962877D02*
X-511300Y-92015286D01*
X79289096Y-60763409D02*
X79277476Y-60676631D01*
X77818971Y-59243804D02*
X77732000Y-59233728D01*
X-817287Y-27470442D02*
X-868438Y-27541501D01*
X-739828Y-122476320D02*
X-680568Y-122540771D01*
X-618108Y-90173961D02*
X-552610Y-90232063D01*
X78547408Y-59526039D02*
X78473843Y-59478566D01*
X34820876Y-91148880D02*
X34820876Y-90642319D01*
X79241088Y-60505404D02*
X79216414Y-60421400D01*
X-999341Y-92625290D02*
X-1035082Y-92705217D01*
X23324718Y-58212392D02*
X31820876Y-58213693D01*
X34820876Y-59223465D02*
X34820876Y-58720714D01*
X79137260Y-57244352D02*
X79173001Y-57164426D01*
X-511300Y-27158954D02*
X-578680Y-27214860D01*
X79187502Y-60338758D02*
X79154425Y-60257693D01*
X11828560Y-90638796D02*
X20324718Y-90640098D01*
X456171Y-26792543D02*
X368913Y-26799743D01*
X-959583Y-92547284D02*
X-999341Y-92625290D01*
X-105799Y-58076388D02*
X-24159Y-58108020D01*
X-1150679Y-28269944D02*
X-1160758Y-28356916D01*
X-1162162Y-56585139D02*
X-1154960Y-56672396D01*
X79216414Y-92849566D02*
X79187502Y-92766924D01*
X78431272Y-122856874D02*
X78506368Y-122811860D01*
X-1094155Y-60441834D02*
X-1117334Y-60526264D01*
X-1162162Y-121441471D02*
X-1154960Y-121528728D01*
X-1020244Y-57178107D02*
X-983083Y-57257384D01*
X-185726Y-90468813D02*
X-105799Y-90504554D01*
X577152Y-123065239D02*
X77681736Y-123077052D01*
X78842405Y-57676726D02*
X78900507Y-57611230D01*
X66309350Y-59225990D02*
X57813192Y-59225309D01*
X69309350Y-91654397D02*
X69309350Y-91148880D01*
X-55734Y-26901369D02*
X-136798Y-26934451D01*
X78274708Y-122935170D02*
X78353986Y-122898013D01*
X77768994Y-90641689D02*
X77855772Y-90630067D01*
X78193643Y-58111917D02*
X78274708Y-58078838D01*
X282135Y-91667702D02*
X196059Y-91683725D01*
X-896923Y-57409763D02*
X-848146Y-57482472D01*
X-848146Y-57482472D02*
X-795736Y-57552607D01*
X143414Y-58158641D02*
X228914Y-58177499D01*
X78075246Y-91728489D02*
X77990817Y-91705311D01*
X8828560Y-91148880D02*
X8828560Y-91649546D01*
X77941848Y-58185882D02*
X78026998Y-58165508D01*
X-216075Y-26971610D02*
X-293361Y-27012752D01*
X-368455Y-59485935D02*
X-441164Y-59534711D01*
X196059Y-59255559D02*
X110910Y-59275937D01*
X-136798Y-26934451D02*
X-216075Y-26971610D01*
X58984Y-58135462D02*
X143414Y-58158641D01*
X456171Y-59220709D02*
X368913Y-59227909D01*
X-704488Y-59764745D02*
X-762590Y-59830242D01*
X-1020244Y-122034439D02*
X-983083Y-122113716D01*
X-1143332Y-121615507D02*
X-1127307Y-121701582D01*
X489605Y-90635876D02*
X577152Y-90637073D01*
X77557083Y-26798726D02*
X456171Y-26792543D01*
X-896923Y-122266095D02*
X-848146Y-122338804D01*
X31820876Y-59223224D02*
X23324718Y-59222543D01*
X78353986Y-90469847D02*
X78431272Y-90428708D01*
X79216414Y-60421400D02*
X79187502Y-60338758D01*
X-1094155Y-28013668D02*
X-1117334Y-28098098D01*
X78397959Y-91863060D02*
X78319954Y-91823302D01*
X8828560Y-90638337D02*
X8828560Y-91148880D01*
X79298671Y-121512728D02*
X79304315Y-121425357D01*
X-762590Y-27402076D02*
X-817287Y-27470442D01*
X23324718Y-91148880D02*
X23324718Y-90640558D01*
X282135Y-59239536D02*
X196059Y-59255559D01*
X78026998Y-90593674D02*
X78111002Y-90568997D01*
X79304315Y-121425357D02*
X79305509Y-121337812D01*
X79053830Y-89826408D02*
X79097502Y-89750524D01*
X315261Y-90620152D02*
X402233Y-90630231D01*
X-484244Y-90286760D02*
X-413185Y-90337910D01*
X78649214Y-57854347D02*
X78716596Y-57798442D01*
X77818971Y-26815638D02*
X77732000Y-26805562D01*
X-795736Y-89980773D02*
X-739828Y-90048154D01*
X-578680Y-92071192D02*
X-643132Y-92130452D01*
X78240028Y-26931229D02*
X78158388Y-26899598D01*
X77557083Y-91655058D02*
X69309350Y-91654397D01*
X78842405Y-122533058D02*
X78900507Y-122467562D01*
X-339618Y-57957217D02*
X-263733Y-58000889D01*
X69309350Y-58219437D02*
X77681736Y-58220720D01*
X79076133Y-27672962D02*
X79031120Y-27597866D01*
X-484244Y-122714926D02*
X-413185Y-122766076D01*
X69309350Y-58720714D02*
X69309350Y-58219437D01*
X228914Y-123033831D02*
X315261Y-123048318D01*
X489605Y-123064042D02*
X577152Y-123065239D01*
X79173001Y-57164426D02*
X79204632Y-57082786D01*
X79277476Y-28248465D02*
X79261460Y-28162389D01*
X54813192Y-58217216D02*
X54813192Y-58720714D01*
X77732000Y-59233728D02*
X77644629Y-59228086D01*
X26906Y-59300617D02*
X-55734Y-59329535D01*
X78874038Y-92243968D02*
X78814782Y-92179515D01*
X78842405Y-90104892D02*
X78900507Y-90039396D01*
X58984Y-122991794D02*
X143414Y-123014973D01*
X-55734Y-91757701D02*
X-136798Y-91790783D01*
X79187502Y-27910592D02*
X79187502Y-27910592D01*
M02*
