G04 #@! TF.GenerationSoftware,KiCad,Pcbnew,7.0.9-7.0.9~ubuntu22.04.1*
G04 #@! TF.CreationDate,2023-12-17T14:41:55+07:00*
G04 #@! TF.ProjectId,final-production,66696e61-6c2d-4707-926f-64756374696f,rev?*
G04 #@! TF.SameCoordinates,Original*
G04 #@! TF.FileFunction,Legend,Bot*
G04 #@! TF.FilePolarity,Positive*
%FSLAX46Y46*%
G04 Gerber Fmt 4.6, Leading zero omitted, Abs format (unit mm)*
G04 Created by KiCad (PCBNEW 7.0.9-7.0.9~ubuntu22.04.1) date 2023-12-17 14:41:55*
%MOMM*%
%LPD*%
G01*
G04 APERTURE LIST*
%ADD10C,0.150000*%
%ADD11C,0.120000*%
%ADD12C,0.100000*%
G04 APERTURE END LIST*
D10*
X34744819Y-52114214D02*
X34268628Y-51780881D01*
X34744819Y-51542786D02*
X33744819Y-51542786D01*
X33744819Y-51542786D02*
X33744819Y-51923738D01*
X33744819Y-51923738D02*
X33792438Y-52018976D01*
X33792438Y-52018976D02*
X33840057Y-52066595D01*
X33840057Y-52066595D02*
X33935295Y-52114214D01*
X33935295Y-52114214D02*
X34078152Y-52114214D01*
X34078152Y-52114214D02*
X34173390Y-52066595D01*
X34173390Y-52066595D02*
X34221009Y-52018976D01*
X34221009Y-52018976D02*
X34268628Y-51923738D01*
X34268628Y-51923738D02*
X34268628Y-51542786D01*
X34697200Y-52495167D02*
X34744819Y-52638024D01*
X34744819Y-52638024D02*
X34744819Y-52876119D01*
X34744819Y-52876119D02*
X34697200Y-52971357D01*
X34697200Y-52971357D02*
X34649580Y-53018976D01*
X34649580Y-53018976D02*
X34554342Y-53066595D01*
X34554342Y-53066595D02*
X34459104Y-53066595D01*
X34459104Y-53066595D02*
X34363866Y-53018976D01*
X34363866Y-53018976D02*
X34316247Y-52971357D01*
X34316247Y-52971357D02*
X34268628Y-52876119D01*
X34268628Y-52876119D02*
X34221009Y-52685643D01*
X34221009Y-52685643D02*
X34173390Y-52590405D01*
X34173390Y-52590405D02*
X34125771Y-52542786D01*
X34125771Y-52542786D02*
X34030533Y-52495167D01*
X34030533Y-52495167D02*
X33935295Y-52495167D01*
X33935295Y-52495167D02*
X33840057Y-52542786D01*
X33840057Y-52542786D02*
X33792438Y-52590405D01*
X33792438Y-52590405D02*
X33744819Y-52685643D01*
X33744819Y-52685643D02*
X33744819Y-52923738D01*
X33744819Y-52923738D02*
X33792438Y-53066595D01*
X33744819Y-53352310D02*
X33744819Y-53923738D01*
X34744819Y-53638024D02*
X33744819Y-53638024D01*
X25706328Y-104672124D02*
X25706328Y-104862600D01*
X25706328Y-104862600D02*
X25753947Y-104957838D01*
X25753947Y-104957838D02*
X25849185Y-105053076D01*
X25849185Y-105053076D02*
X26039661Y-105100695D01*
X26039661Y-105100695D02*
X26372994Y-105100695D01*
X26372994Y-105100695D02*
X26563470Y-105053076D01*
X26563470Y-105053076D02*
X26658709Y-104957838D01*
X26658709Y-104957838D02*
X26706328Y-104862600D01*
X26706328Y-104862600D02*
X26706328Y-104672124D01*
X26706328Y-104672124D02*
X26658709Y-104576886D01*
X26658709Y-104576886D02*
X26563470Y-104481648D01*
X26563470Y-104481648D02*
X26372994Y-104434029D01*
X26372994Y-104434029D02*
X26039661Y-104434029D01*
X26039661Y-104434029D02*
X25849185Y-104481648D01*
X25849185Y-104481648D02*
X25753947Y-104576886D01*
X25753947Y-104576886D02*
X25706328Y-104672124D01*
X25706328Y-105529267D02*
X26515851Y-105529267D01*
X26515851Y-105529267D02*
X26611089Y-105576886D01*
X26611089Y-105576886D02*
X26658709Y-105624505D01*
X26658709Y-105624505D02*
X26706328Y-105719743D01*
X26706328Y-105719743D02*
X26706328Y-105910219D01*
X26706328Y-105910219D02*
X26658709Y-106005457D01*
X26658709Y-106005457D02*
X26611089Y-106053076D01*
X26611089Y-106053076D02*
X26515851Y-106100695D01*
X26515851Y-106100695D02*
X25706328Y-106100695D01*
X25706328Y-106434029D02*
X25706328Y-107005457D01*
X26706328Y-106719743D02*
X25706328Y-106719743D01*
X26325375Y-107338791D02*
X26325375Y-108100696D01*
X15641774Y-104640770D02*
X15641774Y-104831246D01*
X15641774Y-104831246D02*
X15689393Y-104926484D01*
X15689393Y-104926484D02*
X15784631Y-105021722D01*
X15784631Y-105021722D02*
X15975107Y-105069341D01*
X15975107Y-105069341D02*
X16308440Y-105069341D01*
X16308440Y-105069341D02*
X16498916Y-105021722D01*
X16498916Y-105021722D02*
X16594155Y-104926484D01*
X16594155Y-104926484D02*
X16641774Y-104831246D01*
X16641774Y-104831246D02*
X16641774Y-104640770D01*
X16641774Y-104640770D02*
X16594155Y-104545532D01*
X16594155Y-104545532D02*
X16498916Y-104450294D01*
X16498916Y-104450294D02*
X16308440Y-104402675D01*
X16308440Y-104402675D02*
X15975107Y-104402675D01*
X15975107Y-104402675D02*
X15784631Y-104450294D01*
X15784631Y-104450294D02*
X15689393Y-104545532D01*
X15689393Y-104545532D02*
X15641774Y-104640770D01*
X15641774Y-105497913D02*
X16451297Y-105497913D01*
X16451297Y-105497913D02*
X16546535Y-105545532D01*
X16546535Y-105545532D02*
X16594155Y-105593151D01*
X16594155Y-105593151D02*
X16641774Y-105688389D01*
X16641774Y-105688389D02*
X16641774Y-105878865D01*
X16641774Y-105878865D02*
X16594155Y-105974103D01*
X16594155Y-105974103D02*
X16546535Y-106021722D01*
X16546535Y-106021722D02*
X16451297Y-106069341D01*
X16451297Y-106069341D02*
X15641774Y-106069341D01*
X15641774Y-106402675D02*
X15641774Y-106974103D01*
X16641774Y-106688389D02*
X15641774Y-106688389D01*
X16260821Y-107307437D02*
X16260821Y-108069342D01*
X16641774Y-107688389D02*
X15879869Y-107688389D01*
X26800389Y-115463699D02*
X25800389Y-115463699D01*
X26800389Y-115939889D02*
X25800389Y-115939889D01*
X25800389Y-115939889D02*
X26800389Y-116511317D01*
X26800389Y-116511317D02*
X25800389Y-116511317D01*
X26419436Y-116987508D02*
X26419436Y-117749413D01*
X16516359Y-115463699D02*
X15516359Y-115463699D01*
X16516359Y-115939889D02*
X15516359Y-115939889D01*
X15516359Y-115939889D02*
X16516359Y-116511317D01*
X16516359Y-116511317D02*
X15516359Y-116511317D01*
X16135406Y-116987508D02*
X16135406Y-117749413D01*
X16516359Y-117368460D02*
X15754454Y-117368460D01*
X34744819Y-84542380D02*
X34268628Y-84209047D01*
X34744819Y-83970952D02*
X33744819Y-83970952D01*
X33744819Y-83970952D02*
X33744819Y-84351904D01*
X33744819Y-84351904D02*
X33792438Y-84447142D01*
X33792438Y-84447142D02*
X33840057Y-84494761D01*
X33840057Y-84494761D02*
X33935295Y-84542380D01*
X33935295Y-84542380D02*
X34078152Y-84542380D01*
X34078152Y-84542380D02*
X34173390Y-84494761D01*
X34173390Y-84494761D02*
X34221009Y-84447142D01*
X34221009Y-84447142D02*
X34268628Y-84351904D01*
X34268628Y-84351904D02*
X34268628Y-83970952D01*
X34697200Y-84923333D02*
X34744819Y-85066190D01*
X34744819Y-85066190D02*
X34744819Y-85304285D01*
X34744819Y-85304285D02*
X34697200Y-85399523D01*
X34697200Y-85399523D02*
X34649580Y-85447142D01*
X34649580Y-85447142D02*
X34554342Y-85494761D01*
X34554342Y-85494761D02*
X34459104Y-85494761D01*
X34459104Y-85494761D02*
X34363866Y-85447142D01*
X34363866Y-85447142D02*
X34316247Y-85399523D01*
X34316247Y-85399523D02*
X34268628Y-85304285D01*
X34268628Y-85304285D02*
X34221009Y-85113809D01*
X34221009Y-85113809D02*
X34173390Y-85018571D01*
X34173390Y-85018571D02*
X34125771Y-84970952D01*
X34125771Y-84970952D02*
X34030533Y-84923333D01*
X34030533Y-84923333D02*
X33935295Y-84923333D01*
X33935295Y-84923333D02*
X33840057Y-84970952D01*
X33840057Y-84970952D02*
X33792438Y-85018571D01*
X33792438Y-85018571D02*
X33744819Y-85113809D01*
X33744819Y-85113809D02*
X33744819Y-85351904D01*
X33744819Y-85351904D02*
X33792438Y-85494761D01*
X33744819Y-85780476D02*
X33744819Y-86351904D01*
X34744819Y-86066190D02*
X33744819Y-86066190D01*
X15641774Y-72212604D02*
X15641774Y-72403080D01*
X15641774Y-72403080D02*
X15689393Y-72498318D01*
X15689393Y-72498318D02*
X15784631Y-72593556D01*
X15784631Y-72593556D02*
X15975107Y-72641175D01*
X15975107Y-72641175D02*
X16308440Y-72641175D01*
X16308440Y-72641175D02*
X16498916Y-72593556D01*
X16498916Y-72593556D02*
X16594155Y-72498318D01*
X16594155Y-72498318D02*
X16641774Y-72403080D01*
X16641774Y-72403080D02*
X16641774Y-72212604D01*
X16641774Y-72212604D02*
X16594155Y-72117366D01*
X16594155Y-72117366D02*
X16498916Y-72022128D01*
X16498916Y-72022128D02*
X16308440Y-71974509D01*
X16308440Y-71974509D02*
X15975107Y-71974509D01*
X15975107Y-71974509D02*
X15784631Y-72022128D01*
X15784631Y-72022128D02*
X15689393Y-72117366D01*
X15689393Y-72117366D02*
X15641774Y-72212604D01*
X15641774Y-73069747D02*
X16451297Y-73069747D01*
X16451297Y-73069747D02*
X16546535Y-73117366D01*
X16546535Y-73117366D02*
X16594155Y-73164985D01*
X16594155Y-73164985D02*
X16641774Y-73260223D01*
X16641774Y-73260223D02*
X16641774Y-73450699D01*
X16641774Y-73450699D02*
X16594155Y-73545937D01*
X16594155Y-73545937D02*
X16546535Y-73593556D01*
X16546535Y-73593556D02*
X16451297Y-73641175D01*
X16451297Y-73641175D02*
X15641774Y-73641175D01*
X15641774Y-73974509D02*
X15641774Y-74545937D01*
X16641774Y-74260223D02*
X15641774Y-74260223D01*
X16260821Y-74879271D02*
X16260821Y-75641176D01*
X16641774Y-75260223D02*
X15879869Y-75260223D01*
X16516359Y-83035533D02*
X15516359Y-83035533D01*
X16516359Y-83511723D02*
X15516359Y-83511723D01*
X15516359Y-83511723D02*
X16516359Y-84083151D01*
X16516359Y-84083151D02*
X15516359Y-84083151D01*
X16135406Y-84559342D02*
X16135406Y-85321247D01*
X16516359Y-84940294D02*
X15754454Y-84940294D01*
X25706328Y-72243958D02*
X25706328Y-72434434D01*
X25706328Y-72434434D02*
X25753947Y-72529672D01*
X25753947Y-72529672D02*
X25849185Y-72624910D01*
X25849185Y-72624910D02*
X26039661Y-72672529D01*
X26039661Y-72672529D02*
X26372994Y-72672529D01*
X26372994Y-72672529D02*
X26563470Y-72624910D01*
X26563470Y-72624910D02*
X26658709Y-72529672D01*
X26658709Y-72529672D02*
X26706328Y-72434434D01*
X26706328Y-72434434D02*
X26706328Y-72243958D01*
X26706328Y-72243958D02*
X26658709Y-72148720D01*
X26658709Y-72148720D02*
X26563470Y-72053482D01*
X26563470Y-72053482D02*
X26372994Y-72005863D01*
X26372994Y-72005863D02*
X26039661Y-72005863D01*
X26039661Y-72005863D02*
X25849185Y-72053482D01*
X25849185Y-72053482D02*
X25753947Y-72148720D01*
X25753947Y-72148720D02*
X25706328Y-72243958D01*
X25706328Y-73101101D02*
X26515851Y-73101101D01*
X26515851Y-73101101D02*
X26611089Y-73148720D01*
X26611089Y-73148720D02*
X26658709Y-73196339D01*
X26658709Y-73196339D02*
X26706328Y-73291577D01*
X26706328Y-73291577D02*
X26706328Y-73482053D01*
X26706328Y-73482053D02*
X26658709Y-73577291D01*
X26658709Y-73577291D02*
X26611089Y-73624910D01*
X26611089Y-73624910D02*
X26515851Y-73672529D01*
X26515851Y-73672529D02*
X25706328Y-73672529D01*
X25706328Y-74005863D02*
X25706328Y-74577291D01*
X26706328Y-74291577D02*
X25706328Y-74291577D01*
X26325375Y-74910625D02*
X26325375Y-75672530D01*
X26800389Y-83035533D02*
X25800389Y-83035533D01*
X26800389Y-83511723D02*
X25800389Y-83511723D01*
X25800389Y-83511723D02*
X26800389Y-84083151D01*
X26800389Y-84083151D02*
X25800389Y-84083151D01*
X26419436Y-84559342D02*
X26419436Y-85321247D01*
X25706328Y-39815792D02*
X25706328Y-40006268D01*
X25706328Y-40006268D02*
X25753947Y-40101506D01*
X25753947Y-40101506D02*
X25849185Y-40196744D01*
X25849185Y-40196744D02*
X26039661Y-40244363D01*
X26039661Y-40244363D02*
X26372994Y-40244363D01*
X26372994Y-40244363D02*
X26563470Y-40196744D01*
X26563470Y-40196744D02*
X26658709Y-40101506D01*
X26658709Y-40101506D02*
X26706328Y-40006268D01*
X26706328Y-40006268D02*
X26706328Y-39815792D01*
X26706328Y-39815792D02*
X26658709Y-39720554D01*
X26658709Y-39720554D02*
X26563470Y-39625316D01*
X26563470Y-39625316D02*
X26372994Y-39577697D01*
X26372994Y-39577697D02*
X26039661Y-39577697D01*
X26039661Y-39577697D02*
X25849185Y-39625316D01*
X25849185Y-39625316D02*
X25753947Y-39720554D01*
X25753947Y-39720554D02*
X25706328Y-39815792D01*
X25706328Y-40672935D02*
X26515851Y-40672935D01*
X26515851Y-40672935D02*
X26611089Y-40720554D01*
X26611089Y-40720554D02*
X26658709Y-40768173D01*
X26658709Y-40768173D02*
X26706328Y-40863411D01*
X26706328Y-40863411D02*
X26706328Y-41053887D01*
X26706328Y-41053887D02*
X26658709Y-41149125D01*
X26658709Y-41149125D02*
X26611089Y-41196744D01*
X26611089Y-41196744D02*
X26515851Y-41244363D01*
X26515851Y-41244363D02*
X25706328Y-41244363D01*
X25706328Y-41577697D02*
X25706328Y-42149125D01*
X26706328Y-41863411D02*
X25706328Y-41863411D01*
X26325375Y-42482459D02*
X26325375Y-43244364D01*
X16516359Y-50607367D02*
X15516359Y-50607367D01*
X16516359Y-51083557D02*
X15516359Y-51083557D01*
X15516359Y-51083557D02*
X16516359Y-51654985D01*
X16516359Y-51654985D02*
X15516359Y-51654985D01*
X16135406Y-52131176D02*
X16135406Y-52893081D01*
X16516359Y-52512128D02*
X15754454Y-52512128D01*
X26800389Y-50607367D02*
X25800389Y-50607367D01*
X26800389Y-51083557D02*
X25800389Y-51083557D01*
X25800389Y-51083557D02*
X26800389Y-51654985D01*
X26800389Y-51654985D02*
X25800389Y-51654985D01*
X26419436Y-52131176D02*
X26419436Y-52893081D01*
X15641774Y-39784438D02*
X15641774Y-39974914D01*
X15641774Y-39974914D02*
X15689393Y-40070152D01*
X15689393Y-40070152D02*
X15784631Y-40165390D01*
X15784631Y-40165390D02*
X15975107Y-40213009D01*
X15975107Y-40213009D02*
X16308440Y-40213009D01*
X16308440Y-40213009D02*
X16498916Y-40165390D01*
X16498916Y-40165390D02*
X16594155Y-40070152D01*
X16594155Y-40070152D02*
X16641774Y-39974914D01*
X16641774Y-39974914D02*
X16641774Y-39784438D01*
X16641774Y-39784438D02*
X16594155Y-39689200D01*
X16594155Y-39689200D02*
X16498916Y-39593962D01*
X16498916Y-39593962D02*
X16308440Y-39546343D01*
X16308440Y-39546343D02*
X15975107Y-39546343D01*
X15975107Y-39546343D02*
X15784631Y-39593962D01*
X15784631Y-39593962D02*
X15689393Y-39689200D01*
X15689393Y-39689200D02*
X15641774Y-39784438D01*
X15641774Y-40641581D02*
X16451297Y-40641581D01*
X16451297Y-40641581D02*
X16546535Y-40689200D01*
X16546535Y-40689200D02*
X16594155Y-40736819D01*
X16594155Y-40736819D02*
X16641774Y-40832057D01*
X16641774Y-40832057D02*
X16641774Y-41022533D01*
X16641774Y-41022533D02*
X16594155Y-41117771D01*
X16594155Y-41117771D02*
X16546535Y-41165390D01*
X16546535Y-41165390D02*
X16451297Y-41213009D01*
X16451297Y-41213009D02*
X15641774Y-41213009D01*
X15641774Y-41546343D02*
X15641774Y-42117771D01*
X16641774Y-41832057D02*
X15641774Y-41832057D01*
X16260821Y-42451105D02*
X16260821Y-43213010D01*
X16641774Y-42832057D02*
X15879869Y-42832057D01*
X34744819Y-116970546D02*
X34268628Y-116637213D01*
X34744819Y-116399118D02*
X33744819Y-116399118D01*
X33744819Y-116399118D02*
X33744819Y-116780070D01*
X33744819Y-116780070D02*
X33792438Y-116875308D01*
X33792438Y-116875308D02*
X33840057Y-116922927D01*
X33840057Y-116922927D02*
X33935295Y-116970546D01*
X33935295Y-116970546D02*
X34078152Y-116970546D01*
X34078152Y-116970546D02*
X34173390Y-116922927D01*
X34173390Y-116922927D02*
X34221009Y-116875308D01*
X34221009Y-116875308D02*
X34268628Y-116780070D01*
X34268628Y-116780070D02*
X34268628Y-116399118D01*
X34697200Y-117351499D02*
X34744819Y-117494356D01*
X34744819Y-117494356D02*
X34744819Y-117732451D01*
X34744819Y-117732451D02*
X34697200Y-117827689D01*
X34697200Y-117827689D02*
X34649580Y-117875308D01*
X34649580Y-117875308D02*
X34554342Y-117922927D01*
X34554342Y-117922927D02*
X34459104Y-117922927D01*
X34459104Y-117922927D02*
X34363866Y-117875308D01*
X34363866Y-117875308D02*
X34316247Y-117827689D01*
X34316247Y-117827689D02*
X34268628Y-117732451D01*
X34268628Y-117732451D02*
X34221009Y-117541975D01*
X34221009Y-117541975D02*
X34173390Y-117446737D01*
X34173390Y-117446737D02*
X34125771Y-117399118D01*
X34125771Y-117399118D02*
X34030533Y-117351499D01*
X34030533Y-117351499D02*
X33935295Y-117351499D01*
X33935295Y-117351499D02*
X33840057Y-117399118D01*
X33840057Y-117399118D02*
X33792438Y-117446737D01*
X33792438Y-117446737D02*
X33744819Y-117541975D01*
X33744819Y-117541975D02*
X33744819Y-117780070D01*
X33744819Y-117780070D02*
X33792438Y-117922927D01*
X33744819Y-118208642D02*
X33744819Y-118780070D01*
X34744819Y-118494356D02*
X33744819Y-118494356D01*
D11*
G04 #@! TO.C,J1*
X1372402Y-111168166D02*
X1372402Y-101008166D01*
X8992402Y-111168166D02*
X1372402Y-111168166D01*
X1372402Y-101008166D02*
X8992402Y-101008166D01*
X2642402Y-101008166D02*
X2642402Y-111168166D01*
X8992402Y-101008166D02*
X8992402Y-111168166D01*
X1372402Y-46311834D02*
X1372402Y-36151834D01*
X8992402Y-46311834D02*
X1372402Y-46311834D01*
X1372402Y-36151834D02*
X8992402Y-36151834D01*
X2642402Y-36151834D02*
X2642402Y-46311834D01*
X8992402Y-36151834D02*
X8992402Y-46311834D01*
G04 #@! TO.C,U1*
X36830000Y-57741834D02*
X36830000Y-55201834D01*
X66040000Y-57741834D02*
X36830000Y-57741834D01*
X31750000Y-55201834D02*
X31750000Y-27261834D01*
X36830000Y-55201834D02*
X31750000Y-55201834D01*
X68580000Y-55201834D02*
X66040000Y-57741834D01*
X68580000Y-55201834D02*
X68580000Y-53931834D01*
X31750000Y-47581834D02*
X34290000Y-47581834D01*
X34290000Y-47581834D02*
X34290000Y-37421834D01*
X34290000Y-37421834D02*
X31750000Y-37421834D01*
X68580000Y-29801834D02*
X68580000Y-53931834D01*
X68580000Y-29801834D02*
X66040000Y-27261834D01*
X66040000Y-27261834D02*
X31750000Y-27261834D01*
D12*
X35560000Y-56471834D02*
X33020000Y-56471834D01*
X33020000Y-55201834D01*
X35560000Y-55201834D01*
X35560000Y-56471834D01*
G36*
X35560000Y-56471834D02*
G01*
X33020000Y-56471834D01*
X33020000Y-55201834D01*
X35560000Y-55201834D01*
X35560000Y-56471834D01*
G37*
D11*
G04 #@! TO.C,M1*
X28842816Y-100163226D02*
X11808118Y-100172905D01*
X11808118Y-106088166D02*
X11806607Y-116248166D01*
X28810417Y-116248166D02*
X28842816Y-106088166D01*
X11806607Y-122203366D02*
X28810417Y-122193805D01*
G04 #@! TO.C,J6*
X1372402Y-57324568D02*
X1372402Y-47164568D01*
X8992402Y-57324568D02*
X1372402Y-57324568D01*
X1372402Y-47164568D02*
X8992402Y-47164568D01*
X2642402Y-47164568D02*
X2642402Y-57324568D01*
X8992402Y-47164568D02*
X8992402Y-57324568D01*
G04 #@! TO.C,U1*
X36830000Y-90170000D02*
X36830000Y-87630000D01*
X66040000Y-90170000D02*
X36830000Y-90170000D01*
X31750000Y-87630000D02*
X31750000Y-59690000D01*
X36830000Y-87630000D02*
X31750000Y-87630000D01*
X68580000Y-87630000D02*
X66040000Y-90170000D01*
X68580000Y-87630000D02*
X68580000Y-86360000D01*
X31750000Y-80010000D02*
X34290000Y-80010000D01*
X34290000Y-80010000D02*
X34290000Y-69850000D01*
X34290000Y-69850000D02*
X31750000Y-69850000D01*
X68580000Y-62230000D02*
X68580000Y-86360000D01*
X68580000Y-62230000D02*
X66040000Y-59690000D01*
X66040000Y-59690000D02*
X31750000Y-59690000D01*
D12*
X35560000Y-88900000D02*
X33020000Y-88900000D01*
X33020000Y-87630000D01*
X35560000Y-87630000D01*
X35560000Y-88900000D01*
G36*
X35560000Y-88900000D02*
G01*
X33020000Y-88900000D01*
X33020000Y-87630000D01*
X35560000Y-87630000D01*
X35560000Y-88900000D01*
G37*
D11*
G04 #@! TO.C,M1*
X28842816Y-67735060D02*
X11808118Y-67744739D01*
X11808118Y-73660000D02*
X11806607Y-83820000D01*
X28810417Y-83820000D02*
X28842816Y-73660000D01*
X11806607Y-89775200D02*
X28810417Y-89765639D01*
G04 #@! TO.C,J6*
X1372402Y-122180900D02*
X1372402Y-112020900D01*
X8992402Y-122180900D02*
X1372402Y-122180900D01*
X1372402Y-112020900D02*
X8992402Y-112020900D01*
X2642402Y-112020900D02*
X2642402Y-122180900D01*
X8992402Y-112020900D02*
X8992402Y-122180900D01*
G04 #@! TO.C,J1*
X1372402Y-78740000D02*
X1372402Y-68580000D01*
X8992402Y-78740000D02*
X1372402Y-78740000D01*
X1372402Y-68580000D02*
X8992402Y-68580000D01*
X2642402Y-68580000D02*
X2642402Y-78740000D01*
X8992402Y-68580000D02*
X8992402Y-78740000D01*
G04 #@! TO.C,J6*
X1372402Y-89752734D02*
X1372402Y-79592734D01*
X8992402Y-89752734D02*
X1372402Y-89752734D01*
X1372402Y-79592734D02*
X8992402Y-79592734D01*
X2642402Y-79592734D02*
X2642402Y-89752734D01*
X8992402Y-79592734D02*
X8992402Y-89752734D01*
G04 #@! TO.C,M1*
X28842816Y-35306894D02*
X11808118Y-35316573D01*
X11808118Y-41231834D02*
X11806607Y-51391834D01*
X28810417Y-51391834D02*
X28842816Y-41231834D01*
X11806607Y-57347034D02*
X28810417Y-57337473D01*
G04 #@! TO.C,U1*
X36830000Y-122598166D02*
X36830000Y-120058166D01*
X66040000Y-122598166D02*
X36830000Y-122598166D01*
X31750000Y-120058166D02*
X31750000Y-92118166D01*
X36830000Y-120058166D02*
X31750000Y-120058166D01*
X68580000Y-120058166D02*
X66040000Y-122598166D01*
X68580000Y-120058166D02*
X68580000Y-118788166D01*
X31750000Y-112438166D02*
X34290000Y-112438166D01*
X34290000Y-112438166D02*
X34290000Y-102278166D01*
X34290000Y-102278166D02*
X31750000Y-102278166D01*
X68580000Y-94658166D02*
X68580000Y-118788166D01*
X68580000Y-94658166D02*
X66040000Y-92118166D01*
X66040000Y-92118166D02*
X31750000Y-92118166D01*
D12*
X35560000Y-121328166D02*
X33020000Y-121328166D01*
X33020000Y-120058166D01*
X35560000Y-120058166D01*
X35560000Y-121328166D01*
G36*
X35560000Y-121328166D02*
G01*
X33020000Y-121328166D01*
X33020000Y-120058166D01*
X35560000Y-120058166D01*
X35560000Y-121328166D01*
G37*
G04 #@! TD*
M02*
